<?xml version="1.0" standalone="no"?>
<!DOCTYPE svg PUBLIC "-//W3C//DTD SVG 20010904//EN"
 "http://www.w3.org/TR/2001/REC-SVG-20010904/DTD/svg10.dtd">
<svg version="1.0" xmlns="http://www.w3.org/2000/svg"
 width="512.000000pt" height="512.000000pt" viewBox="0 0 512.000000 512.000000"
 preserveAspectRatio="xMidYMid meet">
<metadata>
Created by potrace 1.14, written by Peter Selinger 2001-2017
</metadata>
<g transform="translate(0.000000,512.000000) scale(0.100000,-0.100000)"
fill="#000000" stroke="none">
<path d="M0 2560 l0 -2560 2560 0 2560 0 0 2560 0 2560 -2560 0 -2560 0 0
-2560z m4880 0 l0 -2320 -2320 0 -2320 0 0 2320 0 2320 2320 0 2320 0 0 -2320z"/>
<path d="M1427 4404 c-4 -4 -7 -472 -7 -1041 l0 -1033 -190 0 -190 0 0 -210 0
-210 190 0 190 0 0 -575 0 -575 230 0 230 0 0 386 0 386 183 189 182 189 97 0
96 0 359 -575 358 -575 248 0 c136 0 247 2 247 5 0 2 -159 260 -353 572 l-353
568 430 5 431 5 0 205 0 205 -563 5 c-309 3 -563 8 -565 11 -1 4 174 191 388
415 215 225 424 444 464 487 l74 77 -275 0 -275 0 -472 -495 -472 -495 -114 0
-115 0 -2 1038 -3 1037 -221 3 c-121 1 -223 -1 -227 -4z"/>
</g>
</svg>
