<svg width="64" height="64" viewBox="0 0 64 64" fill="none" xmlns="http://www.w3.org/2000/svg">
<rect width="64" height="64" fill="#E5E5E5"/>
<g clip-path="url(#clip0_5_2)">
<path d="M32 32.2857C37.05 32.2857 41.1429 28.1921 41.1429 23.1429C41.1429 18.0936 37.05 14 32 14C26.95 14 22.8571 18.0936 22.8571 23.1429C22.8571 28.1921 26.95 32.2857 32 32.2857ZM35.6214 35.7143H28.3786C21.5436 35.7143 16 41.2571 16 48.0929C16 49.46 17.1086 50.5693 18.4757 50.5693H45.5257C46.8929 50.5714 48 49.4643 48 48.0929C48 41.2571 42.4571 35.7143 35.6214 35.7143Z" fill="#353535"/>
</g>
<defs>
<clipPath id="clip0_5_2">
<rect width="32" height="36.5714" fill="white" transform="translate(16 14)"/>
</clipPath>
</defs>
</svg>
