<svg width="64" height="64" viewBox="0 0 64 64" fill="none" xmlns="http://www.w3.org/2000/svg">
<rect width="64" height="64" fill="#E5E5E5"/>
<path d="M34.6667 21.6667V11H20C17.7908 11 16 12.7908 16 15V49.6667C16 51.875 17.7908 53.6667 20 53.6667H44C46.2092 53.6667 48 51.8758 48 49.6667V24.3333H37.4083C35.8583 24.3333 34.6667 23.1417 34.6667 21.6667ZM24 29.6667C25.4725 29.6667 26.6667 30.8608 26.6667 32.3333C26.6667 33.8058 25.475 35 24 35C22.525 35 21.3333 33.8083 21.3333 32.3333C21.3333 30.8583 22.5275 29.6667 24 29.6667ZM42.5083 47.625C42.275 48.0667 41.825 48.3333 41.3333 48.3333H22.6667C22.175 48.3333 21.7233 48.0627 21.4908 47.6291C21.2589 47.1957 21.2843 46.6691 21.5571 46.2608L26.0012 39.5941C26.175 39.225 26.5917 39 27.1083 39C27.625 39 27.9708 39.2228 28.2175 39.5938L29.3333 41.2667L33.1125 35.5975C33.3583 35.225 33.775 35 34.225 35C34.675 35 35.0875 35.2228 35.3342 35.5938L42.445 46.2604C42.7167 46.6667 42.7417 47.1917 42.5083 47.625ZM37.3333 11V21.6667H48L37.3333 11Z" fill="#888888"/>
</svg>
